<svg width="119" height="81" viewBox="0 0 119 81" fill="none" xmlns="http://www.w3.org/2000/svg">
<path d="M79.332 10.5H94.207C99.6838 10.5 104.124 13.4848 104.124 17.1667V27.1667" stroke="white" stroke-width="1.89349" stroke-linecap="round" stroke-linejoin="round"/>
<path d="M39.6667 70.4948H24.7917C19.3148 70.4948 14.875 67.51 14.875 63.8281V53.8281" stroke="white" stroke-width="1.89349" stroke-linecap="round" stroke-linejoin="round"/>
<path d="M47.9805 11.8281V32.9531C47.9805 36.8421 40.887 39.9948 32.1367 39.9948C23.3865 39.9948 16.293 36.8421 16.293 32.9531V11.8281" stroke="white" stroke-width="2" stroke-linecap="round" stroke-linejoin="round"/>
<path d="M47.9805 22.3906C47.9805 26.2796 40.887 29.4323 32.1367 29.4323C23.3865 29.4323 16.293 26.2796 16.293 22.3906" stroke="white" stroke-width="2" stroke-linecap="round" stroke-linejoin="round"/>
<path d="M47.9805 11.8307C47.9805 15.7197 40.887 18.8724 32.1367 18.8724C23.3865 18.8724 16.293 15.7197 16.293 11.8307C16.293 7.94172 23.3865 4.78906 32.1367 4.78906C40.887 4.78906 47.9805 7.94172 47.9805 11.8307Z" fill="#1AA1E0" stroke="white" stroke-width="2" stroke-linecap="round" stroke-linejoin="round"/>
<path d="M87.8646 57.6042C92.7258 57.6042 96.6667 53.6633 96.6667 48.8021C96.6667 43.9408 92.7258 40 87.8646 40C83.0033 40 79.0625 43.9408 79.0625 48.8021C79.0625 53.6633 83.0033 57.6042 87.8646 57.6042Z" fill="#1AA1E0"/>
<path d="M103.707 75.2031H72.0195C72.0195 66.4528 79.113 59.3594 87.8633 59.3594C96.6136 59.3594 103.707 66.4528 103.707 75.2031Z" fill="#1AA1E0"/>
<path fill-rule="evenodd" clip-rule="evenodd" d="M55.1247 38.0131L54.3654 35.2863C54.3232 35.1125 54.2465 34.949 54.1398 34.8055C54.0331 34.662 53.8987 34.5415 53.7445 34.451C53.5902 34.3605 53.4194 34.3019 53.2421 34.2788C53.0648 34.2557 52.8846 34.2685 52.7124 34.3164C52.5401 34.3644 52.3792 34.4464 52.2393 34.5578C52.0994 34.6692 51.9834 34.8075 51.898 34.9647C51.8127 35.1218 51.7598 35.2945 51.7426 35.4725C51.7254 35.6505 51.7441 35.8301 51.7977 36.0007L52.4687 38.4166L52.5897 38.3963C53.4756 38.2601 54.3209 38.1277 55.1247 38.0131ZM54.3417 44.873C54.5389 45.4603 54.7387 46.0016 54.9456 46.4952C55.6458 48.1573 56.5065 49.4502 57.8836 50.3383C59.2618 51.2272 60.7935 51.4772 62.5953 51.4287C64.3406 51.3819 66.5002 51.0469 69.2096 50.627L69.3011 50.613L73.455 49.9681C73.795 49.9038 74.0966 49.7099 74.2962 49.4273C74.4959 49.1447 74.5778 48.7956 74.5248 48.4537C74.4718 48.1118 74.2879 47.8039 74.0121 47.595C73.7363 47.3862 73.3901 47.2927 73.0466 47.3344L68.8923 47.9774C66.0712 48.4157 64.079 48.7222 62.5245 48.7636C61.0073 48.8037 60.0812 48.584 59.3282 48.0984C58.5752 47.6128 57.9931 46.8598 57.4037 45.4611C57.2774 45.1575 57.1523 44.8325 57.0271 44.4804C56.2542 44.5817 55.3712 44.7135 54.3417 44.873Z" fill="white"/>
<path fill-rule="evenodd" clip-rule="evenodd" d="M67.6536 46.1491C67.4553 45.5611 67.2555 45.0197 67.0476 44.5254C66.3484 42.864 65.4896 41.5708 64.1114 40.6819C62.7343 39.7938 61.2008 39.5441 59.3989 39.5926C57.6543 39.6384 55.494 39.9745 52.7854 40.3933L52.6931 40.4083L48.54 41.0521C48.3644 41.076 48.1953 41.1345 48.0426 41.2244C47.89 41.3144 47.7567 41.4338 47.6507 41.5758C47.5448 41.7178 47.4681 41.8795 47.4254 42.0514C47.3826 42.2234 47.3745 42.4021 47.4016 42.5772C47.4287 42.7523 47.4904 42.9203 47.5831 43.0713C47.6759 43.2222 47.7978 43.3532 47.9417 43.4565C48.0857 43.5599 48.2488 43.6335 48.4215 43.673C48.5942 43.7126 48.7731 43.7173 48.9476 43.687L53.1019 43.0439C55.9231 42.6057 57.9152 42.2991 59.4698 42.2577C60.987 42.2177 61.9131 42.4373 62.6661 42.9229C63.4191 43.4086 64.0012 44.1616 64.5905 45.5603C64.7168 45.8638 64.842 46.1889 64.9679 46.5398C65.74 46.4396 66.6238 46.3068 67.6536 46.1491ZM69.5255 52.6047L69.4053 52.6239C68.5186 52.7613 67.674 52.8925 66.8695 53.0083L67.6289 55.735C67.7289 56.0697 67.9562 56.3518 68.262 56.5206C68.5678 56.6895 68.9277 56.7315 69.2642 56.6378C69.6007 56.544 69.887 56.322 70.0615 56.0194C70.2359 55.7168 70.2847 55.3578 70.1973 55.0196L69.5255 52.6047Z" fill="#1AA1E0"/>
</svg>
